<?xml version="1.0" standalone="no"?>
<!DOCTYPE svg PUBLIC "-//W3C//DTD SVG 20010904//EN"
 "http://www.w3.org/TR/2001/REC-SVG-20010904/DTD/svg10.dtd">
<svg version="1.0" xmlns="http://www.w3.org/2000/svg"
 width="512.000000pt" height="512.000000pt" viewBox="0 0 512.000000 512.000000"
 preserveAspectRatio="xMidYMid meet">
<metadata>
Created by potrace 1.14, written by Peter Selinger 2001-2017
</metadata>
<g transform="translate(0.000000,512.000000) scale(0.100000,-0.100000)"
fill="#000000" stroke="none">
<path d="M2379 5116 c-2 -2 -40 -6 -83 -10 -44 -4 -82 -8 -85 -10 -3 -2 -31
-7 -61 -11 -30 -3 -75 -11 -100 -17 -25 -5 -56 -12 -70 -14 -52 -10 -264 -74
-269 -81 -5 -7 -24 -12 -58 -15 -7 -1 -13 -5 -13 -10 0 -4 -8 -8 -18 -8 -10 0
-22 -3 -26 -7 -4 -5 -11 -8 -14 -8 -18 -2 -52 -17 -52 -24 0 -4 -6 -8 -12 -8
-20 0 -167 -75 -283 -144 -213 -127 -456 -331 -605 -508 -25 -30 -49 -59 -55
-65 -37 -41 -85 -106 -85 -114 0 -6 -4 -12 -9 -14 -12 -4 -121 -173 -121 -187
0 -6 -4 -11 -8 -11 -5 0 -19 -23 -32 -50 l-24 -50 -57 4 -58 4 -13 -37 c-14
-42 -18 -120 -6 -127 4 -3 8 -14 8 -25 0 -10 4 -19 10 -19 11 0 9 -28 -3 -47
-5 -7 -6 -17 -3 -22 4 -5 3 -11 -2 -13 -8 -3 -52 -117 -52 -136 0 -6 -5 -23
-12 -39 -6 -15 -12 -32 -14 -38 -20 -83 -61 -276 -68 -325 -28 -196 -29 -569
-2 -725 3 -16 8 -43 10 -60 12 -85 75 -346 85 -355 3 -3 6 -9 7 -15 2 -22 28
-95 33 -95 4 0 8 -12 9 -26 1 -15 6 -32 10 -38 5 -6 15 -27 22 -46 15 -38 97
-210 120 -250 53 -93 138 -224 166 -257 13 -15 24 -32 24 -36 0 -5 6 -14 13
-21 6 -7 28 -33 47 -57 91 -112 316 -339 338 -339 6 0 12 -4 12 -9 0 -14 180
-147 285 -212 121 -75 262 -149 269 -142 3 4 6 1 6 -5 0 -7 3 -11 8 -10 4 1
27 -8 52 -19 41 -19 77 -33 83 -32 1 0 28 -11 60 -25 31 -14 57 -23 57 -20 0
4 6 2 13 -4 6 -6 15 -11 20 -11 4 -1 8 -1 10 -2 1 0 10 -2 20 -5 27 -6 41 -11
57 -17 19 -7 174 -44 215 -51 17 -2 44 -7 60 -10 122 -23 222 -30 420 -31 210
0 299 7 450 35 28 5 61 11 75 14 69 11 210 50 210 58 0 5 4 7 9 4 9 -6 239 72
277 93 11 6 61 30 111 55 292 140 552 337 781 592 30 32 62 69 73 80 10 12 19
28 19 35 0 7 3 10 6 6 7 -7 29 23 128 173 62 93 93 146 154 265 28 54 40 80
87 190 29 68 64 175 57 175 -4 0 -2 4 4 8 5 4 20 45 31 92 12 47 25 99 29 115
4 17 8 35 9 40 1 6 4 24 8 40 29 132 41 272 42 480 0 219 -10 337 -45 505 -6
30 -14 66 -16 80 -3 14 -14 57 -26 95 -22 77 -22 76 -33 123 -4 17 -10 32 -14
32 -4 0 -7 10 -8 21 -1 12 -11 41 -22 65 -23 48 -26 64 -11 64 5 0 14 9 20 21
14 25 21 127 9 135 -4 2 -6 11 -2 19 3 8 0 15 -7 15 -6 0 -9 4 -6 9 9 13 -30
20 -83 14 -44 -4 -50 -3 -56 17 -8 25 -26 55 -127 208 -42 64 -86 127 -97 139
-12 12 -21 25 -21 29 0 4 -11 17 -25 30 -14 13 -25 26 -25 30 0 13 -215 231
-285 289 -26 22 -53 45 -59 50 -36 33 -203 151 -301 212 -28 17 -119 65 -195
103 -36 17 -78 39 -95 48 -16 9 -30 14 -30 12 0 -2 -16 4 -35 13 -19 8 -64 25
-100 37 -36 12 -74 26 -85 31 -26 11 -260 70 -300 75 -16 2 -41 6 -55 9 -14 3
-43 7 -65 10 -22 3 -56 8 -75 11 -39 6 -456 15 -461 10z"/>
</g>
</svg>
